<svg width="32" height="36" viewBox="0 0 32 36" fill="none" xmlns="http://www.w3.org/2000/svg">
<path d="M31.9461 10.5566C31.9459 9.95284 31.8168 9.41934 31.5556 8.96159C31.2991 8.51122 30.915 8.13384 30.3997 7.83547C26.1466 5.38309 21.8894 2.93822 17.6376 0.483343C16.4914 -0.178407 15.38 -0.154157 14.2423 0.517093C12.5494 1.51534 4.07375 6.37122 1.54813 7.83409C0.508 8.43634 0.001875 9.35784 0.001625 10.5555C0 15.4873 0.001625 20.4192 0 25.3511C0 25.9416 0.123875 26.4648 0.3735 26.9157C0.630125 27.3796 1.01962 27.7673 1.54675 28.0725C4.0725 29.5353 12.5492 34.3908 14.2417 35.3895C15.38 36.0611 16.4914 36.0851 17.638 35.4232C21.8899 32.9682 26.1474 30.5233 30.4011 28.071C30.9282 27.766 31.3178 27.378 31.5744 26.9145C31.8236 26.4635 31.9478 25.9403 31.9478 25.3497C31.9478 25.3497 31.9478 15.4886 31.9461 10.5566Z" fill="#A179DC"/>
<path d="M16.0228 17.9051L0.373535 26.9156C0.63016 27.3795 1.01966 27.7673 1.54679 28.0724C4.07254 29.5353 12.5493 34.3908 14.2418 35.3894C15.38 36.061 16.4914 36.085 17.638 35.4231C21.8899 32.9681 26.1474 30.5233 30.4012 28.0709C30.9283 27.7659 31.3178 27.3779 31.5744 26.9144L16.0228 17.9051" fill="#280068"/>
<path d="M31.9461 10.5565C31.9458 9.95274 31.8167 9.41924 31.5556 8.96149L16.0227 17.9052L31.5743 26.9144C31.8236 26.4634 31.9475 25.9402 31.9477 25.3496C31.9477 25.3496 31.9477 15.4885 31.9461 10.5565" fill="#390091"/>
<path d="M25.2365 14.5367V16.221H26.9207V14.5367H27.7628V16.221H29.4471V17.0631H27.7628V18.7472H29.4471V19.5894H27.7628V21.2736H26.9207V19.5894H25.2365V21.2736H24.3943V19.5894H22.7102V18.7472H24.3943V17.0631H22.7102V16.221H24.3943V14.5367H25.2365ZM26.9207 17.063H25.2365V18.7472H26.9207V17.0631V17.063Z" fill="white"/>
<path d="M16.0571 6.07825C20.4501 6.07825 24.2855 8.464 26.3399 12.0102L26.3199 11.9761L21.1511 14.9521C20.1329 13.228 18.2661 12.0644 16.1245 12.0404L16.057 12.04C12.7914 12.04 10.1439 14.6875 10.1439 17.9531C10.1428 18.9824 10.4117 19.994 10.9238 20.8869C11.943 22.6662 13.8591 23.8664 16.0571 23.8664C18.2688 23.8664 20.1958 22.651 21.2098 20.8526L21.1851 20.8957L26.346 23.8855C24.3141 27.4017 20.5313 29.7801 16.1894 29.8275L16.0571 29.8282C11.6503 29.8282 7.80401 27.4277 5.75476 23.8627C4.75438 22.1224 4.18201 20.1047 4.18201 17.9531C4.18201 11.3949 9.49851 6.07812 16.057 6.07812L16.0571 6.07825Z" fill="white"/>
</svg>
