<svg width="52" height="19" viewBox="0 0 52 19" fill="none" xmlns="http://www.w3.org/2000/svg">
<g clip-path="url(#clip0)">
<path d="M39.2937 4.20702C40.5126 4.20702 41.6391 4.33611 43.0056 4.61307L42.0318 6.66443C41.2747 6.51666 41.9712 6.64462 41.3991 6.58927V6.88482L41.4359 8.08488L41.4542 9.63615C41.4726 10.0238 41.4726 10.4117 41.4912 10.7994V11.5751C41.4912 14.0127 41.2881 15.1575 40.6787 16.0992C39.7924 17.4843 38.2596 18.1675 36.0807 18.1675C34.9726 18.1675 34.0126 18.0013 33.0152 17.6135V14.9913H33.0154C34.0128 15.5083 35.0098 15.7483 36.0623 15.7483C37.9273 15.7483 38.7214 14.9913 38.7214 13.1815V13.1261C38.1675 13.403 37.6134 13.5139 36.8749 13.5139C34.382 13.5139 32.7936 11.8704 32.7936 9.26676C32.7936 6.03494 35.139 4.20692 39.2936 4.20692L39.2937 4.20702ZM13.4987 4.39156V10.9839C13.4987 13.2553 13.3324 14.3447 12.8339 15.2866C12.3721 16.1915 11.7627 16.7638 10.5071 17.3918L7.86642 16.136C9.12214 15.5452 9.73141 15.0283 10.1192 14.2339C10.5255 13.4214 10.6549 12.4796 10.6549 10.0052V4.39166H13.4987V4.39156ZM47.4203 4.15147C50.2641 4.15147 52 5.94283 52 8.84193C52 11.8152 50.1905 13.6802 47.3095 13.6802C44.4656 13.6802 42.7113 11.8889 42.7113 9.00829C42.7115 6.01646 44.5212 4.15157 47.4203 4.15157V4.15147ZM18.9836 4.18854C20.4424 4.18854 21.4026 4.5762 21.8273 5.33335C22.0673 5.75809 22.1411 6.31201 22.1411 7.49399V13.2737C20.8668 13.4584 19.2604 13.5877 18.0786 13.5877C15.6966 13.5877 14.6253 12.7565 14.6253 10.91C14.6253 8.91556 16.0472 7.99236 19.5375 7.69681V7.06895C19.5375 6.552 19.279 6.36746 18.5587 6.36746C17.5062 6.36746 16.3243 6.6628 15.2163 7.23541V5.03791C16.4722 4.44722 17.6724 4.18864 18.9836 4.18864V4.18854ZM8.97457 0V13.1632C7.51583 13.4402 6.44465 13.551 5.28145 13.551C1.80964 13.551 0 11.9813 0 8.97132C0 6.07212 1.92055 4.18874 4.89359 4.18874C5.35519 4.18874 5.70609 4.22551 6.13082 4.33631V0H8.97457V0ZM27.995 4.18864C29.4538 4.18864 30.5064 4.52095 31.1345 5.1673C31.7254 5.77657 31.9099 6.4413 31.9099 7.86337V13.4401H29.0661V7.97418C29.0661 6.88472 28.6968 6.47826 27.6812 6.47826C27.2934 6.47826 26.9426 6.51523 26.37 6.68139V13.4401H23.5262V4.83478C25.2066 4.39166 26.5915 4.18864 27.995 4.18864V4.18864ZM19.6668 9.56221C17.7831 9.74685 17.1737 10.0424 17.1737 10.781C17.1737 11.3349 17.5247 11.5935 18.3002 11.5935C18.725 11.5935 19.1127 11.5566 19.6668 11.4643V9.56221V9.56221ZM47.3836 6.4414C46.2569 6.4414 45.6104 7.34632 45.6104 8.91576C45.6106 10.4855 46.2569 11.3903 47.3647 11.3903C48.4545 11.3903 49.1008 10.4854 49.1008 8.91576C49.1008 7.3647 48.4728 6.4414 47.3836 6.4414V6.4414ZM5.17065 6.47826C3.73029 6.47826 2.8992 7.3647 2.8992 8.91576C2.8992 10.4301 3.69342 11.261 5.15216 11.261C5.46599 11.261 5.72457 11.2426 6.13082 11.1873V6.62594C5.79841 6.51523 5.52145 6.47826 5.17065 6.47826V6.47826ZM36.7271 6.9028C36.0441 7.29076 35.693 7.99256 35.693 8.9896C35.693 10.4117 36.3949 11.2241 37.6505 11.2241C38.0383 11.2241 38.3523 11.1501 38.7215 11.0394V10.0609C38.7215 9.72847 38.7032 9.35898 38.7032 8.97132L38.6849 7.66025L38.6663 6.71846V6.49675H38.3707C37.8169 6.47826 37.1706 6.62594 36.7272 6.9029L36.7271 6.9028ZM13.4987 0.0152344V2.93292H10.6549V0.0151328H13.4987V0.0152344Z" fill="#77FE9E"/>
</g>
<defs>
<clipPath id="clip0">
<rect width="52" height="18.1797" fill="white"/>
</clipPath>
</defs>
</svg>
