<svg width="64" height="64" viewBox="0 0 64 64" fill="none" xmlns="http://www.w3.org/2000/svg">
<g clip-path="url(#clip0)">
<path d="M8.44802 20.1782V43.5122H11.178V26.6362C11.2006 25.5684 11.1552 24.5003 11.042 23.4382H11.146C11.344 23.9482 11.594 24.4382 11.886 24.8962L23.886 43.5002H27.23V20.1782H24.512V36.5842C24.48 37.7302 24.544 38.8762 24.678 40.0122H24.616C24.3171 39.4814 24.0009 38.9604 23.668 38.4502L11.99 20.1802L8.44802 20.1782ZM33.282 20.1782V43.5122H45.688L45.698 40.9502H36.072V32.8562H44.5V30.3982H36.072V22.6482H45.114V20.1802L33.282 20.1782ZM47.782 20.1782V22.6462H54.49V43.5102H57.22V22.6462H64.002V20.1782H47.782ZM1.74002 40.1782C1.51043 40.1843 1.28437 40.2362 1.07518 40.331C0.86599 40.4258 0.677905 40.5616 0.522022 40.7302C0.186698 41.0724 -0.000149291 41.5331 0.00202159 42.0122C-0.00110439 42.3709 0.102882 42.7223 0.300669 43.0216C0.498456 43.3208 0.781043 43.5542 1.11226 43.6919C1.44347 43.8296 1.80823 43.8653 2.15986 43.7944C2.51148 43.7236 2.83396 43.5494 3.08602 43.2942C3.43002 42.9602 3.62802 42.4922 3.62802 42.0122C3.62802 41.5322 3.43002 41.0642 3.08602 40.7302C2.92156 40.5553 2.7229 40.416 2.50237 40.321C2.28183 40.2261 2.04413 40.1775 1.80402 40.1782H1.74202H1.74002Z" fill="white"/>
</g>
<defs>
<clipPath id="clip0">
<rect width="64" height="64" fill="white"/>
</clipPath>
</defs>
</svg>
