<svg width="36" height="36" viewBox="0 0 36 36" fill="none" xmlns="http://www.w3.org/2000/svg">
<path d="M24 24C27.3137 24 30 21.3137 30 18C30 14.6863 27.3137 12 24 12C20.6863 12 18 14.6863 18 18C18 21.3137 20.6863 24 24 24Z" fill="#19BCFE"/>
<path fill-rule="evenodd" clip-rule="evenodd" d="M12 36C13.5913 36 15.1174 35.3679 16.2426 34.2426C17.3679 33.1174 18 31.5913 18 30V24H12C10.4087 24 8.88258 24.6321 7.75736 25.7574C6.63214 26.8826 6 28.4087 6 30C6 31.5913 6.63214 33.1174 7.75736 34.2426C8.88258 35.3679 10.4087 36 12 36V36Z" fill="#09CF83"/>
<path fill-rule="evenodd" clip-rule="evenodd" d="M12 24H18V12H12C10.4087 12 8.88258 12.6321 7.75736 13.7574C6.63214 14.8826 6 16.4087 6 18C6 19.5913 6.63214 21.1174 7.75736 22.2426C8.88258 23.3679 10.4087 24 12 24V24Z" fill="#A259FF"/>
<path fill-rule="evenodd" clip-rule="evenodd" d="M12 12H18V0H12C10.4087 0 8.88258 0.632141 7.75736 1.75736C6.63214 2.88258 6 4.4087 6 6C6 7.5913 6.63214 9.11742 7.75736 10.2426C8.88258 11.3679 10.4087 12 12 12V12Z" fill="#F24E1E"/>
<path fill-rule="evenodd" clip-rule="evenodd" d="M24 12H18V0H24C25.5913 0 27.1174 0.632141 28.2426 1.75736C29.3679 2.88258 30 4.4087 30 6C30 7.5913 29.3679 9.11742 28.2426 10.2426C27.1174 11.3679 25.5913 12 24 12Z" fill="#FF7262"/>
</svg>
