<svg width="58" height="58" viewBox="0 0 58 58" fill="none" xmlns="http://www.w3.org/2000/svg">
<path d="M42.2918 9.66671C37.6277 9.66671 33.8335 13.4609 33.8335 18.125C33.8335 21.8805 36.3106 25.0343 39.706 26.1363C39.3532 28.3886 38.3841 30.2446 36.7335 31.7502C32.0307 36.035 23.3766 36.4265 19.3335 36.3588V21.3561C22.8135 20.3073 25.3752 17.11 25.3752 13.2917C25.3752 8.62754 21.581 4.83337 16.9168 4.83337C12.2527 4.83337 8.4585 8.62754 8.4585 13.2917C8.4585 17.11 11.0202 20.3073 14.5002 21.3561V36.644C11.0202 37.6928 8.4585 40.89 8.4585 44.7084C8.4585 49.3725 12.2527 53.1667 16.9168 53.1667C21.581 53.1667 25.3752 49.3725 25.3752 44.7084C25.3752 43.3768 25.0368 42.1346 24.4882 41.0133C29.4666 40.5638 35.7427 39.1839 39.9767 35.3341C42.6277 32.9247 44.1599 29.8628 44.578 26.2281C48.1281 25.2252 50.7502 21.9917 50.7502 18.125C50.7502 13.4609 46.956 9.66671 42.2918 9.66671ZM13.2918 13.2917C13.2918 11.2931 14.9182 9.66671 16.9168 9.66671C18.9154 9.66671 20.5418 11.2931 20.5418 13.2917C20.5418 15.2903 18.9154 16.9167 16.9168 16.9167C14.9182 16.9167 13.2918 15.2903 13.2918 13.2917ZM16.9168 48.3334C14.9182 48.3334 13.2918 46.707 13.2918 44.7084C13.293 43.7553 13.6695 42.841 14.3398 42.1635C15.0101 41.4859 15.9203 41.0996 16.8733 41.0882L17.1875 41.1124C17.6616 41.1301 18.1276 41.2411 18.5589 41.439C18.9901 41.6369 19.3782 41.9177 19.7009 42.2656C20.0236 42.6134 20.2746 43.0214 20.4396 43.4662C20.6046 43.9111 20.6804 44.3841 20.6627 44.8582C20.6449 45.3323 20.5339 45.7983 20.336 46.2296C20.1382 46.6608 19.8573 47.0489 19.5095 47.3716C19.1616 47.6943 18.7537 47.9453 18.3088 48.1103C17.864 48.2754 17.391 48.3511 16.9168 48.3334ZM42.2918 21.75C40.2932 21.75 38.6668 20.1236 38.6668 18.125C38.6668 16.1265 40.2932 14.5 42.2918 14.5C44.2904 14.5 45.9168 16.1265 45.9168 18.125C45.9168 20.1236 44.2904 21.75 42.2918 21.75Z" fill="white"/>
</svg>
