<svg width="57" height="64" viewBox="0 0 57 64" fill="none" xmlns="http://www.w3.org/2000/svg">
<g clip-path="url(#clip0)">
<path fill-rule="evenodd" clip-rule="evenodd" d="M33.9053 7.32511L47.0489 14.914C47.4284 14.5125 47.8638 14.1679 48.3418 13.8909C51.0676 12.3238 54.5445 13.2542 56.1278 15.9802C57.6949 18.7062 56.7645 22.1829 54.0385 23.7662C53.564 24.0394 53.0528 24.243 52.5205 24.3707V39.554C53.047 39.6819 53.5527 39.8841 54.0222 40.1544C56.7645 41.7378 57.6949 45.2147 56.1116 47.9407C54.5445 50.6664 51.0513 51.5969 48.3253 50.03C47.7972 49.727 47.3215 49.3408 46.9165 48.8862L33.8529 56.4284C34.0442 57.0077 34.1414 57.6139 34.1407 58.224C34.1407 61.358 31.5945 63.9209 28.444 63.9209C25.2936 63.9209 22.7473 61.3742 22.7473 58.224C22.7473 57.664 22.8278 57.1231 22.9778 56.6122L9.83779 49.0256C9.46249 49.4191 9.03316 49.7573 8.56268 50.03C5.82046 51.5969 2.34357 50.6664 0.776458 47.9407C-0.790431 45.2147 0.140014 41.7378 2.86579 40.1544C3.33537 39.884 3.84102 39.6818 4.36757 39.5538V24.3707C3.83521 24.243 3.32398 24.0394 2.84957 23.7662C0.123569 22.1993 -0.806875 18.7062 0.760236 15.9802C2.32735 13.2542 5.82024 12.3238 8.54624 13.8909C9.02159 14.1664 9.4549 14.5088 9.8329 14.9076L22.9802 7.31667C22.8253 6.79064 22.7468 6.24505 22.7473 5.69667C22.7473 2.54667 25.2936 0 28.444 0C31.5945 0 34.1407 2.54644 34.1407 5.69667C34.1407 6.26289 34.0585 6.80933 33.9053 7.32511ZM32.536 9.66333L45.7109 17.27C45.5011 18.0033 45.4409 18.7714 45.534 19.5285C45.627 20.2855 45.8714 21.0162 46.2525 21.6769C47.0545 23.072 48.3609 23.9969 49.8109 24.3573V39.5596C49.7369 39.5776 49.6633 39.5973 49.5902 39.6182L32.3829 9.81556C32.4349 9.76578 32.486 9.71511 32.536 9.66356V9.66333ZM24.5087 9.81889L7.30157 39.6211C7.22717 39.5996 7.15234 39.5796 7.07712 39.5611V24.3573C8.52712 23.9969 9.83357 23.072 10.6356 21.6769C11.0174 21.0149 11.262 20.2827 11.3547 19.5241C11.4473 18.7655 11.3862 17.996 11.1749 17.2616L24.346 9.65711C24.3991 9.712 24.4533 9.766 24.5087 9.81867V9.81889ZM30.0358 11.1689L47.2389 40.9644C46.8448 41.3405 46.5071 41.7713 46.236 42.2438C45.9656 42.7134 45.7635 43.219 45.6356 43.7456H11.2529C11.1248 43.219 10.9225 42.7133 10.652 42.2438C10.38 41.7746 10.0429 41.3463 9.65068 40.9718L26.8571 11.1702C27.373 11.3188 27.9072 11.3939 28.444 11.3933C28.9967 11.3933 29.5307 11.3151 30.0358 11.1689ZM32.6569 54.3862L45.7462 46.8289C45.707 46.7055 45.6719 46.5809 45.6411 46.4551H11.2456C11.2273 46.5291 11.2076 46.6024 11.1865 46.6756L24.3398 54.27C24.871 53.7177 25.5084 53.2786 26.2137 52.9791C26.9191 52.6796 27.6777 52.5259 28.444 52.5273C29.2371 52.5259 30.0217 52.6906 30.7472 53.0108C31.4728 53.3309 32.1233 53.7995 32.6569 54.3862Z" fill="#E535AB"/>
</g>
<defs>
<clipPath id="clip0">
<rect width="56.8889" height="64" fill="white"/>
</clipPath>
</defs>
</svg>
