<svg width="52" height="21" viewBox="0 0 52 21" fill="none" xmlns="http://www.w3.org/2000/svg">
<path d="M0.160156 10.0811C0.160156 8.26204 0.561198 6.82259 1.36328 5.7627C2.17253 4.69564 3.26823 4.16211 4.65039 4.16211C6.23307 4.16211 7.4362 4.79232 8.25977 6.05273L8.32422 4.37695H9.52734V15.7637C9.52734 17.2604 9.1084 18.4456 8.27051 19.3193C7.43262 20.193 6.29753 20.6299 4.86523 20.6299C4.05599 20.6299 3.28255 20.4473 2.54492 20.082C1.81445 19.724 1.23796 19.2441 0.81543 18.6426L1.53516 17.8691C2.44466 18.9863 3.52604 19.5449 4.7793 19.5449C5.85352 19.5449 6.69141 19.2262 7.29297 18.5889C7.89453 17.9587 8.20605 17.0814 8.22754 15.957V14.4961C7.40397 15.6419 6.20443 16.2148 4.62891 16.2148C3.28255 16.2148 2.20117 15.6777 1.38477 14.6035C0.568359 13.5293 0.160156 12.0791 0.160156 10.2529V10.0811ZM1.45996 10.3066C1.45996 11.7891 1.75716 12.96 2.35156 13.8193C2.94596 14.6715 3.78385 15.0977 4.86523 15.0977C6.44792 15.0977 7.56868 14.3887 8.22754 12.9707V7.56738C7.92676 6.82259 7.49349 6.25684 6.92773 5.87012C6.36198 5.47624 5.68164 5.2793 4.88672 5.2793C3.80534 5.2793 2.96387 5.7054 2.3623 6.55762C1.76074 7.40267 1.45996 8.65234 1.45996 10.3066ZM19.0234 9.49023H14.4795V16H13.1475V0.359375H18.2285C19.8971 0.359375 21.2005 0.763997 22.1387 1.57324C23.0768 2.38249 23.5459 3.514 23.5459 4.96777C23.5459 5.97038 23.2523 6.85482 22.665 7.62109C22.0778 8.38737 21.29 8.91732 20.3018 9.21094L24.2119 15.8604V16H22.8047L19.0234 9.49023ZM14.4795 8.3623H18.5293C19.6393 8.3623 20.5309 8.0472 21.2041 7.41699C21.8773 6.78678 22.2139 5.97038 22.2139 4.96777C22.2139 3.86491 21.863 3.00911 21.1611 2.40039C20.4593 1.79167 19.4746 1.4873 18.207 1.4873H14.4795V8.3623ZM28.4658 9.62988V16H27.1445V0.359375H32.4727C34.0983 0.359375 35.3802 0.77474 36.3184 1.60547C37.2637 2.4362 37.7363 3.57845 37.7363 5.03223C37.7363 6.50033 37.2816 7.63542 36.3721 8.4375C35.4697 9.23242 34.1592 9.62988 32.4404 9.62988H28.4658ZM28.4658 8.5127H32.4727C33.7546 8.5127 34.7321 8.20833 35.4053 7.59961C36.0785 6.99089 36.415 6.14225 36.415 5.05371C36.415 3.97233 36.0785 3.11296 35.4053 2.47559C34.7393 1.83105 33.7904 1.50163 32.5586 1.4873H28.4658V8.5127ZM51.7764 11.123C51.5973 12.7702 51.0065 14.0306 50.0039 14.9043C49.0085 15.778 47.68 16.2148 46.0186 16.2148C44.8584 16.2148 43.8307 15.9248 42.9355 15.3447C42.0475 14.7646 41.36 13.9447 40.873 12.8848C40.3861 11.8177 40.139 10.6003 40.1318 9.23242V7.20215C40.1318 5.81283 40.3753 4.58105 40.8623 3.50684C41.3493 2.43262 42.0475 1.60547 42.957 1.02539C43.8737 0.438151 44.9264 0.144531 46.1152 0.144531C47.791 0.144531 49.1123 0.599284 50.0791 1.50879C51.0531 2.41113 51.6188 3.66081 51.7764 5.25781H50.4443C50.1149 2.60091 48.6719 1.27246 46.1152 1.27246C44.6973 1.27246 43.5658 1.80241 42.7207 2.8623C41.8828 3.9222 41.4639 5.38672 41.4639 7.25586V9.16797C41.4639 10.9727 41.8721 12.4121 42.6885 13.4863C43.512 14.5605 44.6221 15.0977 46.0186 15.0977C47.4007 15.0977 48.4427 14.7682 49.1445 14.1094C49.8464 13.4434 50.2796 12.4479 50.4443 11.123H51.7764Z" fill="white"/>
</svg>
