<svg width="42" height="56" viewBox="0 0 42 56" fill="none" xmlns="http://www.w3.org/2000/svg">
<g clip-path="url(#clip0)">
<path d="M13.3615 43.2904C13.3615 43.2904 11.2254 44.5326 14.8817 44.9529C19.3114 45.4582 21.5752 45.3859 26.4567 44.4619C26.4567 44.4619 27.7402 45.2666 29.5323 45.9637C18.5895 50.6536 4.76626 45.6919 13.3615 43.2904Z" fill="#5382A1"/>
<path d="M12.0242 37.1703C12.0242 37.1703 9.62834 38.9438 13.2874 39.3222C18.0193 39.8104 21.7561 39.8503 28.2223 38.6052C28.2223 38.6052 29.1167 39.5119 30.523 40.0078C17.2923 43.8767 2.55567 40.3129 12.0242 37.1703Z" fill="#5382A1"/>
<path d="M23.2969 26.7886C25.9933 29.8928 22.5885 32.6864 22.5885 32.6864C22.5885 32.6864 29.4349 29.1521 26.2906 24.7261C23.354 20.5989 21.1019 18.548 33.2935 11.4774C33.2935 11.4774 14.1567 16.2568 23.2969 26.7884" fill="#E76F00"/>
<path d="M37.7702 47.8172C37.7702 47.8172 39.351 49.1196 36.0292 50.1272C29.7129 52.0408 9.73965 52.6186 4.19112 50.2035C2.19664 49.336 5.93699 48.1318 7.11347 47.879C8.34046 47.6129 9.04175 47.6626 9.04175 47.6626C6.8236 46.0999 -5.29538 50.7308 2.88596 52.0568C25.1974 55.6751 43.5575 50.4276 37.7702 47.8172Z" fill="#5382A1"/>
<path d="M14.3884 30.829C14.3884 30.829 4.22889 33.2422 10.7908 34.1183C13.5613 34.4893 19.0844 34.4054 24.2291 33.9743C28.4337 33.6198 32.6555 32.8656 32.6555 32.8656C32.6555 32.8656 31.173 33.5005 30.1004 34.2329C19.7835 36.9463 -0.147041 35.6841 5.59069 32.9085C10.4431 30.563 14.3885 30.829 14.3885 30.829" fill="#5382A1"/>
<path d="M32.6136 41.0162C43.1014 35.5664 38.2522 30.3293 34.8676 31.035C34.038 31.2075 33.6682 31.3571 33.6682 31.3571C33.6682 31.3571 33.9762 30.8747 34.5643 30.666C41.2601 28.3119 46.4096 37.6088 32.4028 41.2909C32.4028 41.2911 32.5652 41.1461 32.6136 41.0162Z" fill="#5382A1"/>
<path d="M26.2909 0.0599763C26.2909 0.0599763 32.0992 5.87038 20.782 14.8046C11.7069 21.9717 18.7126 26.0581 20.7783 30.7269C15.4809 25.9475 11.5933 21.7401 14.2015 17.8243C18.0294 12.0759 28.6343 9.28897 26.2909 0.0598145" fill="#E76F00"/>
<path d="M15.4191 55.7839C25.486 56.4284 40.9447 55.4264 41.3108 50.663C41.3108 50.663 40.6071 52.4689 32.9911 53.9029C24.3988 55.5197 13.8015 55.331 7.51611 54.2947C7.51628 54.2947 8.80282 55.3597 15.4192 55.7839" fill="#5382A1"/>
</g>
<defs>
<clipPath id="clip0">
<rect width="41.4335" height="56" fill="white"/>
</clipPath>
</defs>
</svg>
