<svg width="48" height="48" viewBox="0 0 48 48" fill="none" xmlns="http://www.w3.org/2000/svg">
<path d="M0 0H48V48H0V0Z" fill="#F7DF1E"/>
<path d="M12.6208 40.1122L16.2939 37.8892C17.0027 39.1456 17.6473 40.2087 19.1936 40.2087C20.6758 40.2087 21.6105 39.629 21.6105 37.3737V22.0366H26.1212V37.4375C26.1212 42.1094 23.3825 44.2361 19.3869 44.2361C15.7785 44.2361 13.6839 42.3672 12.6206 40.1118" fill="black"/>
<path d="M28.5715 39.6289L32.2442 37.5024C33.2112 39.0814 34.4678 40.2412 36.6908 40.2412C38.56 40.2412 39.7517 39.3067 39.7517 38.0179C39.7517 36.4714 38.5274 35.9235 36.4652 35.0216L35.3378 34.5379C32.0834 33.1528 29.9247 31.4128 29.9247 27.7397C29.9247 24.3564 32.5022 21.7787 36.5299 21.7787C39.3975 21.7787 41.4597 22.7777 42.9417 25.3875L39.4294 27.6431C38.656 26.2577 37.8186 25.71 36.5297 25.71C35.2086 25.71 34.3709 26.5477 34.3709 27.6431C34.3709 28.9963 35.2086 29.5444 37.1417 30.3821L38.2694 30.8653C42.1037 32.5087 44.2624 34.1841 44.2624 37.9536C44.2624 42.0137 41.0727 44.2367 36.7874 44.2367C32.5988 44.2367 29.8922 42.2391 28.5713 39.6291" fill="black"/>
</svg>
