<svg width="29" height="36" viewBox="0 0 29 36" fill="none" xmlns="http://www.w3.org/2000/svg">
<path d="M20.1815 26.8967L16.3438 30.8042C15.6776 31.5074 14.7596 31.8 13.7476 31.8C12.7356 31.8 11.8186 31.5074 11.1513 30.8042L4.98533 24.2651C4.32347 23.5619 3.98506 22.5358 3.98506 21.4692C3.98506 20.3981 4.32347 19.4305 4.98533 18.7329L11.1343 12.1578C11.7961 11.4613 12.7356 11.1913 13.7476 11.1913C14.7596 11.1913 15.6776 11.4839 16.3438 12.187L20.1815 16.0946C20.9149 16.8686 22.1276 16.8405 22.8888 16.036C23.6446 15.2338 23.6734 13.9568 22.9389 13.1828L19.2314 9.2325C18.2711 8.23411 17.0655 7.53783 15.7502 7.22193L19.2592 3.47194C19.9936 2.69899 19.9712 1.42087 19.209 0.618662C18.4468 -0.183542 17.2352 -0.208294 16.5018 0.560156L2.1233 15.7143C0.728051 17.1904 0 19.2167 0 21.467C0 23.7127 0.729119 25.8099 2.1233 27.2815L8.31174 33.8207C9.70699 35.2912 11.6371 36 13.7721 36C15.9018 36 17.8298 35.2315 19.2261 33.7622L22.94 29.8006C23.6745 29.0322 23.6456 27.7563 22.8845 26.953C22.1234 26.1497 20.9106 26.1204 20.1826 26.8945L20.1815 26.8967ZM26.8856 19.5183H12.4409C11.446 19.5183 10.6347 20.4195 10.6347 21.5333C10.6347 22.6483 11.446 23.5552 12.4409 23.5552H26.8856C27.8816 23.5552 28.6929 22.6472 28.6929 21.5333C28.6929 20.4206 27.8816 19.5183 26.8856 19.5183Z" fill="white"/>
</svg>
