<svg width="128" height="128" viewBox="0 0 128 128" fill="none" xmlns="http://www.w3.org/2000/svg">
<path d="M87.4999 30.2717C86.8759 30.2717 86.4599 30.3557 86.0399 30.4597V30.5237H86.1039C86.3959 31.0637 86.8759 31.4837 87.2479 31.9837C87.5399 32.5477 87.7879 33.1277 88.0599 33.6917L88.1439 33.6077C88.6439 33.2517 88.8959 32.6917 88.8959 31.8357C88.6879 31.5837 88.6439 31.3157 88.4599 31.0837C88.2519 30.7277 87.7919 30.5437 87.4999 30.2717ZM30.7719 100.644H25.8359C25.6864 92.7871 25.2073 84.9402 24.3999 77.1237H24.3599L16.8399 100.644H13.0679L5.60791 77.1237H5.54391C4.96417 84.9517 4.61735 92.7952 4.50391 100.644H0.00390625C0.247571 90.7804 0.977792 80.9351 2.19191 71.1437H8.31591L15.4399 92.8117H15.4799L22.6679 71.1437H28.4999C29.7919 81.8957 30.5639 91.7277 30.7919 100.644H30.7719ZM52.1879 78.8757C50.1879 89.7917 47.5199 97.7317 44.2519 102.668C41.6679 106.48 38.8559 108.396 35.7919 108.396C34.9799 108.396 33.9799 108.144 32.7719 107.644V105.02C33.3759 105.104 34.0639 105.164 34.8359 105.164C36.2719 105.164 37.4199 104.748 38.2959 103.976C39.3359 103.016 39.8599 101.936 39.8599 100.748C39.8599 99.9157 39.4639 98.2477 38.6319 95.7077L33.2359 78.8757H38.0919L41.9679 91.4597C42.8439 94.3357 43.2199 96.3157 43.0519 97.4597C45.1959 91.7917 46.6759 85.5837 47.5119 78.8757H52.1879ZM117.936 100.644H103.896V71.1437H108.624V97.0197H117.936V100.644ZM100.228 101.356L94.8119 98.6877C95.2919 98.2917 95.7479 97.8557 96.1679 97.3557C98.4799 94.6677 99.6279 90.6477 99.6279 85.3557C99.6279 75.5837 95.7959 70.7117 88.1279 70.7117C84.3759 70.7117 81.4399 71.9397 79.3359 74.4197C77.0439 77.1277 75.8759 81.1277 75.8759 86.3997C75.8759 91.5877 76.8959 95.3797 78.9399 97.8157C80.8159 99.9837 83.6279 101.088 87.3999 101.088C88.7959 101.088 90.0879 100.92 91.2559 100.568L98.3199 104.692L100.256 101.36L100.228 101.356ZM82.6679 94.7277C81.4599 92.8117 80.8759 89.7277 80.8759 85.4757C80.8759 78.0397 83.1279 74.3317 87.6479 74.3317C90.0039 74.3317 91.7519 75.2277 92.8559 76.9997C94.0439 78.9357 94.6479 81.9797 94.6479 86.1877C94.6479 93.6677 92.3759 97.4397 87.8759 97.4397C85.4999 97.4397 83.7719 96.5437 82.6479 94.7717L82.6679 94.7277ZM73.8319 92.4797C73.8319 94.9797 72.9159 97.0437 71.0599 98.6237C69.2279 100.228 66.7879 101.04 63.6839 101.04C60.7879 101.04 58.0159 100.124 55.2879 98.2877L56.5599 95.7477C58.8919 96.9157 60.9959 97.4997 62.9159 97.4997C64.6879 97.4997 66.0839 97.1037 67.0839 96.3317C68.0839 95.5397 68.6879 94.4357 68.6879 93.0397C68.6879 91.2877 67.4599 89.7877 65.2279 88.5397C63.1639 87.3957 59.0199 85.0397 59.0199 85.0397C56.7679 83.3957 55.6639 81.6437 55.6639 78.7477C55.6639 76.3517 56.4959 74.4357 58.1639 72.9757C59.8519 71.4757 61.9959 70.7477 64.6639 70.7477C67.3183 70.7247 69.9204 71.4858 72.1439 72.9357L70.9999 75.4757C69.2126 74.6887 67.2847 74.271 65.3319 74.2477C63.8119 74.2477 62.6439 74.6237 61.8319 75.3517C61.0199 76.0797 60.5199 76.9957 60.5199 78.1437C60.5199 79.8957 61.7719 81.3957 64.0599 82.6837C66.1639 83.8277 70.3919 86.2477 70.3919 86.2477C72.7039 87.8717 73.8519 89.6237 73.8519 92.4757L73.8319 92.4797ZM123.856 61.2517C121 61.1877 118.792 61.4797 116.94 62.2717C116.42 62.4797 115.564 62.4797 115.48 63.1477C115.772 63.4397 115.812 63.8997 116.064 64.2917C116.5 64.9997 117.232 65.9597 117.92 66.4597C118.672 67.0437 119.42 67.6277 120.192 68.1277C121.588 68.9837 123.152 69.4837 124.524 70.3357C125.296 70.8357 126.088 71.4797 126.856 72.0037C127.252 72.2757 127.5 72.7557 128 72.9197V72.8157C127.748 72.5037 127.688 72.0437 127.436 71.6717C127.08 71.3157 126.728 71.0037 126.372 70.6517C125.329 69.2668 124.078 68.0511 122.664 67.0477C121.52 66.2757 119.02 65.1917 118.56 63.8797L118.496 63.7957C119.268 63.7317 120.184 63.4397 120.932 63.2317C122.14 62.9197 123.264 62.9797 124.516 62.6677C125.09 62.5187 125.66 62.3519 126.224 62.1677V61.8557C125.58 61.2117 125.1 60.3357 124.432 59.7317C122.591 58.1211 120.626 56.6579 118.556 55.3557C117.432 54.6277 116.016 54.1677 114.828 53.5637C114.412 53.3557 113.684 53.2517 113.452 52.8957C112.808 52.1037 112.432 51.0837 111.972 50.1437C110.926 48.1101 109.953 46.0395 109.056 43.9357C108.412 42.5397 108.036 41.1637 107.244 39.8717C103.576 33.8077 99.5759 30.1437 93.4519 26.5397C92.1399 25.7877 90.5559 25.4757 88.8879 25.0797C87.9919 25.0397 87.1159 24.9757 86.2199 24.9357C85.6359 24.6837 85.0759 24.0197 84.5759 23.6837C82.5359 22.3917 77.2839 19.6197 75.8039 23.2877C74.8439 25.6197 77.2199 27.8917 78.0559 29.0597C78.6599 29.8917 79.4319 30.8117 79.8679 31.7277C80.1199 32.3517 80.1799 32.9997 80.4319 33.6437C80.9959 35.2077 81.5359 36.9557 82.2879 38.4157C82.6839 39.1677 83.0999 39.9557 83.5999 40.6237C83.8919 41.0197 84.3919 41.1877 84.4959 41.8317C83.9959 42.5597 83.9559 43.6237 83.6839 44.4997C82.3919 48.5397 82.8919 53.5197 84.7039 56.4997C85.2879 57.3957 86.6399 59.3557 88.4559 58.6037C90.0599 57.9597 89.7079 55.9357 90.1639 54.1437C90.2679 53.7077 90.2039 53.4357 90.4159 53.1437V53.2277C90.9359 54.2277 91.4359 55.1877 91.8959 56.1877C92.9799 57.9397 94.9159 59.7517 96.5199 60.9597C97.3759 61.6037 98.0399 62.7117 99.1039 63.1037V62.9997H99.0199C98.7919 62.6877 98.4999 62.5397 98.2079 62.2917C97.5324 61.6226 96.9055 60.9061 96.3319 60.1477C94.8519 58.1477 93.5199 55.9397 92.3519 53.6677C91.7892 52.5452 91.2754 51.3988 90.8119 50.2317C90.6039 49.8157 90.6039 49.1677 90.2479 48.9597C89.7079 49.7317 88.9159 50.3957 88.5399 51.3757C87.8519 52.8957 87.7879 54.7917 87.5199 56.7517C87.3959 56.7917 87.4559 56.7517 87.3959 56.8357C86.2519 56.5437 85.8559 55.3757 85.4359 54.3757C84.3519 51.8357 84.1839 47.7717 85.1039 44.8557C85.3559 44.1037 86.4159 41.7517 85.9999 41.0437C85.7719 40.3557 85.0639 39.9597 84.6879 39.4197C84.2079 38.7517 83.7279 37.8997 83.3959 37.1477C82.5399 35.1477 82.1239 32.9397 81.1879 30.9397C80.7719 30.0237 80.0199 29.0637 79.4159 28.2117C78.7279 27.2517 77.9799 26.5677 77.4559 25.4397C77.2679 25.0437 77.0199 24.3997 77.3119 23.9797C77.3759 23.6877 77.5199 23.5837 77.8119 23.4997C78.2719 23.1037 79.6039 23.6037 80.0639 23.8317C81.3759 24.3517 82.4799 24.8517 83.5839 25.6037C84.0839 25.9597 84.6239 26.6237 85.2719 26.8117H86.0239C87.1679 27.0637 88.4399 26.8757 89.5039 27.2077C91.3999 27.8117 93.1079 28.6877 94.6479 29.6437C99.3574 32.6669 103.187 36.8776 105.752 41.8517C106.188 42.6637 106.376 43.4157 106.772 44.2677C107.5 46.0397 108.44 47.8077 109.188 49.4957C109.936 51.1837 110.648 52.8917 111.728 54.2877C112.268 55.0397 114.396 55.4317 115.372 55.8077C116.08 56.1397 117.184 56.4317 117.808 56.8077C119.036 57.5597 120.244 58.4117 121.392 59.2437C121.976 59.6397 123.748 60.5357 123.852 61.2437L123.856 61.2517Z" fill="white"/>
</svg>
