<svg width="80" height="48" viewBox="0 0 80 48" fill="none" xmlns="http://www.w3.org/2000/svg">
<g clip-path="url(#clip0)">
<path d="M18.7666 12.5143H33.7675V13.7067H20.1417V22.6802H32.955V23.8725H20.1417V33.7246H33.9237V34.9168H18.7666V12.5143ZM35.1115 12.5143H36.7052L43.7681 22.3664L50.9872 12.5142L60.8064 0L44.6743 23.4019L52.9873 34.9168H51.331L43.7681 24.4373L36.1738 34.9168H34.5488L42.9243 23.4018L35.1113 12.5143H35.1115ZM53.5811 13.7067V12.5142H70.6759V13.7066H62.8003V34.9167H61.4252V13.7067H53.5811ZM0 12.5142H1.71883L25.4206 47.9818L15.6259 34.9167L1.43751 14.2086L1.37507 34.917H0V12.5142ZM70.5373 33.3645C70.2563 33.3645 70.0457 33.147 70.0457 32.8656C70.0457 32.5844 70.2563 32.3666 70.5373 32.3666C70.8216 32.3666 71.029 32.5842 71.029 32.8656C71.029 33.1469 70.8216 33.3645 70.5373 33.3645ZM71.8885 32.0519H72.6243C72.6343 32.4503 72.9252 32.7183 73.3533 32.7183C73.8316 32.7183 74.1025 32.4303 74.1025 31.8911V28.4752H74.8517V31.8944C74.8517 32.8656 74.2899 33.4249 73.36 33.4249C72.487 33.4249 71.8885 32.8823 71.8885 32.0517V32.0519ZM75.8316 32.0084H76.5741C76.6377 32.4671 77.0858 32.7584 77.7314 32.7584C78.3334 32.7584 78.7748 32.4469 78.7748 32.0183C78.7748 31.65 78.4938 31.429 77.8551 31.2783L77.2329 31.1276C76.3599 30.9232 75.9621 30.5013 75.9621 29.7914C75.9621 28.9308 76.6644 28.3581 77.7179 28.3581C78.6978 28.3581 79.4136 28.9306 79.4571 29.7445H78.7279C78.6577 29.2991 78.2697 29.021 77.7078 29.021C77.116 29.021 76.7214 29.3058 76.7214 29.741C76.7214 30.0859 76.9754 30.2836 77.6042 30.4309L78.1359 30.5616C79.1259 30.7927 79.534 31.1946 79.534 31.9212C79.534 32.8455 78.8183 33.4249 77.6746 33.4249C76.6043 33.4249 75.885 32.8722 75.8316 32.0082V32.0084Z" fill="white"/>
</g>
<defs>
<clipPath id="clip0">
<rect width="79.534" height="48" fill="white"/>
</clipPath>
</defs>
</svg>
