<svg width="36" height="33" viewBox="0 0 36 33" fill="none" xmlns="http://www.w3.org/2000/svg">
<g clip-path="url(#clip0)">
<path d="M29.5992 10.3817C29.2161 10.2502 28.8297 10.1284 28.4404 10.0164C28.5058 9.74926 28.566 9.48531 28.6194 9.22599C29.4967 4.96773 28.9232 1.53718 26.9644 0.407681C25.0864 -0.675131 22.015 0.453947 18.9131 3.15353C18.6074 3.42006 18.3084 3.69427 18.0166 3.9759C17.8212 3.78862 17.6224 3.60498 17.4202 3.42507C14.1692 0.538603 10.9107 -0.677944 8.95402 0.454791C7.07766 1.54098 6.52205 4.76593 7.3118 8.80159C7.39037 9.20128 7.47908 9.59891 7.57786 9.99409C7.11661 10.1252 6.67153 10.2647 6.24558 10.4132C2.43408 11.7421 0 13.8246 0 15.9847C0 18.2157 2.61309 20.4535 6.58294 21.8104C6.90478 21.9199 7.2293 22.0215 7.5562 22.1148C7.45003 22.5405 7.35578 22.969 7.27355 23.3999C6.52064 27.3655 7.10859 30.5142 8.97989 31.5935C10.9126 32.7081 14.1566 31.5626 17.3152 28.8014C17.5713 28.5769 17.8218 28.3461 18.0664 28.1091C18.3824 28.4141 18.7069 28.7102 19.0395 28.997C22.0992 31.6298 25.121 32.6929 26.9904 31.6107C28.9214 30.4929 29.549 27.1103 28.7342 22.9949C28.67 22.6725 28.598 22.3516 28.5183 22.0327C28.7461 21.9652 28.9697 21.8957 29.1877 21.8235C33.3148 20.4562 36 18.2455 36 15.9847C36 13.8167 33.4873 11.7201 29.5992 10.3817V10.3817ZM28.7041 20.3638C28.5072 20.4289 28.3053 20.4917 28.0994 20.5529C27.6438 19.1105 27.029 17.5769 26.2765 15.9922C26.9945 14.4453 27.5857 12.9312 28.0285 11.4982C28.3968 11.6048 28.7542 11.7172 29.0987 11.8357C32.4301 12.9827 34.4621 14.6782 34.4621 15.9847C34.4621 17.3763 32.2675 19.1829 28.7041 20.3638V20.3638ZM27.2256 23.2936C27.5858 25.1132 27.6372 26.7586 27.3985 28.0449C27.1842 29.2007 26.7531 29.9711 26.2198 30.2798C25.0854 30.9365 22.6592 30.0829 20.0426 27.8312C19.7333 27.5645 19.4314 27.2893 19.1374 27.0058C20.1518 25.8964 21.1656 24.6067 22.155 23.1743C23.8954 23.0199 25.5396 22.7673 27.0307 22.4227C27.1041 22.719 27.1693 23.0095 27.2256 23.2936V23.2936ZM12.2732 30.1663C11.1648 30.5577 10.2819 30.5689 9.74827 30.2612C8.61272 29.6064 8.14064 27.0781 8.78456 23.6867C8.86111 23.286 8.94875 22.8875 9.04739 22.4916C10.522 22.8178 12.1542 23.0524 13.8987 23.1939C14.8949 24.5955 15.9379 25.8837 16.989 27.0118C16.7657 27.228 16.537 27.4386 16.3032 27.6435C14.9064 28.8644 13.5068 29.7307 12.2732 30.1663V30.1663ZM7.08047 20.3552C5.32505 19.7552 3.87534 18.9754 2.88169 18.1245C1.98872 17.3599 1.53802 16.6007 1.53802 15.9847C1.53802 14.6738 3.49228 13.0018 6.75183 11.8654C7.14741 11.7276 7.56141 11.5975 7.99102 11.4754C8.44158 12.9407 9.03248 14.4729 9.74559 16.0221C9.0232 17.5943 8.42386 19.1509 7.96894 20.6335C7.67055 20.548 7.3743 20.4552 7.08047 20.3552V20.3552ZM8.82113 8.50614C8.14458 5.04859 8.59387 2.44042 9.72464 1.78581C10.929 1.08859 13.5921 2.08267 16.3991 4.5751C16.5822 4.738 16.7622 4.9042 16.9393 5.07362C15.8933 6.19679 14.8598 7.47549 13.8725 8.86881C12.1794 9.02574 10.5587 9.27774 9.06862 9.61539C8.97682 9.24782 8.89429 8.878 8.82113 8.50628V8.50614ZM24.3499 12.3407C23.998 11.7328 23.633 11.1325 23.2552 10.5403C24.4038 10.6855 25.5043 10.8783 26.5378 11.114C26.2275 12.1085 25.8408 13.1482 25.3856 14.2141C25.0529 13.5828 24.7076 12.9582 24.3499 12.3407V12.3407ZM18.0173 6.17274C18.7266 6.94126 19.437 7.79921 20.1358 8.73015C18.7183 8.66321 17.2984 8.66292 15.8809 8.72931C16.5804 7.80695 17.2969 6.95012 18.0173 6.17274ZM11.644 12.3512C11.2908 12.9638 10.952 13.5845 10.6277 14.2128C10.18 13.1507 9.79678 12.1063 9.48389 11.0977C10.511 10.8679 11.6063 10.6801 12.7477 10.5375C12.3656 11.1333 11.9977 11.738 11.644 12.3511V12.3512ZM12.7804 21.5414C11.6013 21.4097 10.4895 21.2316 9.46266 21.008C9.78047 19.9814 10.1721 18.9148 10.6296 17.8299C10.9551 18.4587 11.2954 19.0798 11.6501 19.6926C12.0149 20.3226 12.3926 20.9396 12.7804 21.5414ZM18.0598 25.905C17.3308 25.1186 16.6037 24.2485 15.8937 23.3128C16.5831 23.3398 17.2858 23.3536 18 23.3536C18.7338 23.3536 19.4591 23.3372 20.1731 23.3054C19.4721 24.258 18.7643 25.1293 18.0598 25.905ZM25.4001 17.7744C25.8813 18.8713 26.2869 19.9323 26.6089 20.9413C25.5652 21.1795 24.4382 21.3714 23.2508 21.5138C23.6313 20.9106 23.9998 20.2999 24.356 19.682C24.7181 19.054 25.0663 18.418 25.4001 17.7744V17.7744ZM23.0238 18.9137C22.4785 19.861 21.9025 20.7903 21.2968 21.7001C20.1996 21.7778 19.1 21.8164 18 21.8159C16.8796 21.8159 15.7899 21.781 14.7406 21.7129C14.1191 20.8052 13.5321 19.8742 12.981 18.9221H12.9811C12.4325 17.975 11.9202 17.0074 11.445 16.0214C11.9189 15.0352 12.4298 14.0672 12.9765 13.1193L12.9763 13.1195C13.5228 12.1714 14.1051 11.2445 14.7219 10.3406C15.7925 10.2596 16.8903 10.2174 17.9999 10.2174H18C19.1146 10.2174 20.2139 10.26 21.2842 10.3416C21.8948 11.2441 22.4733 12.1679 23.0188 13.1112C23.5673 14.0569 24.0848 15.0202 24.5707 15.9996C24.0898 16.989 23.5739 17.961 23.0238 18.9137V18.9137ZM26.1963 1.73996C27.4018 2.43521 27.8706 5.23885 27.1132 8.91549C27.0648 9.15006 27.0105 9.38898 26.9515 9.63128C25.4578 9.28646 23.8359 9.0301 22.1379 8.87078C21.1487 7.46214 20.1237 6.18146 19.0948 5.07278C19.3644 4.81283 19.6405 4.55963 19.9228 4.3134C22.5806 2.00054 25.0646 1.08732 26.1963 1.73996V1.73996ZM18 12.77C19.7754 12.77 21.2147 14.2093 21.2147 15.9847C21.2147 17.7601 19.7754 19.1994 18 19.1994C16.2246 19.1994 14.7853 17.7601 14.7853 15.9847C14.7853 14.2093 16.2246 12.77 18 12.77V12.77Z" fill="#00D8FF"/>
</g>
<defs>
<clipPath id="clip0">
<rect width="36" height="32.0625" fill="white"/>
</clipPath>
</defs>
</svg>
