<svg width="64" height="64" viewBox="0 0 64 64" fill="none" xmlns="http://www.w3.org/2000/svg">
<path d="M32 36.9481C34.7614 36.9481 37 34.7095 37 31.9481C37 29.1867 34.7614 26.9481 32 26.9481C29.2386 26.9481 27 29.1867 27 31.9481C27 34.7095 29.2386 36.9481 32 36.9481Z" fill="#007ACC"/>
<path d="M32 43.412C25.9903 43.5574 19.9956 42.7473 14.24 41.0121C11.5812 40.1692 9.10147 38.8415 6.926 37.0961C6.09586 36.4998 5.40454 35.7309 4.89948 34.8423C4.39443 33.9537 4.08758 32.9664 4 31.948C4 28.642 7.632 25.402 13.716 23.282C19.6255 21.4035 25.7998 20.4931 32 20.586C38.1174 20.5006 44.2091 21.3945 50.044 23.234C52.6046 24.0504 55.0003 25.3139 57.12 26.966C57.9359 27.5345 58.6169 28.2755 59.1146 29.1364C59.6123 29.9974 59.9146 30.9573 60 31.948C60 35.384 55.94 38.866 49.4 41.03C43.7559 42.7088 37.8877 43.5121 32 43.412V43.412ZM32 22.978C26.0682 22.8988 20.1617 23.7643 14.502 25.542C8.902 27.496 6.392 30.168 6.392 31.942C6.392 33.798 9.09 36.7161 15.014 38.7421C20.5201 40.3938 26.2532 41.1626 32 41.0201C37.6328 41.1208 43.2478 40.3586 48.65 38.76C54.8 36.722 57.6 33.8 57.6 31.948C57.4991 31.3125 57.2675 30.7048 56.9198 30.1633C56.5721 29.6218 56.1159 29.1583 55.58 28.802C53.6835 27.3363 51.5434 26.2165 49.258 25.494C43.6761 23.7416 37.85 22.8922 32 22.978V22.978Z" fill="#007ACC"/>
<path d="M20.6402 56.886C19.7072 56.9074 18.7852 56.681 17.9682 56.23C15.1042 54.578 14.1122 49.814 15.3142 43.484C16.6395 37.4261 18.9358 31.6225 22.1142 26.2979C25.0957 20.9562 28.9126 16.1258 33.4202 11.9899C35.4065 10.1794 37.6979 8.73503 40.1882 7.72395C41.0889 7.30182 42.0715 7.08301 43.0662 7.08301C44.0609 7.08301 45.0435 7.30182 45.9442 7.72395C48.9222 9.43995 49.9082 14.6959 48.5182 21.4419C47.152 27.1711 44.9153 32.6568 41.8862 37.708C39.0097 42.9867 35.3129 47.775 30.9342 51.894C28.8758 53.7755 26.4869 55.2599 23.8882 56.272C22.8478 56.6581 21.7497 56.8657 20.6402 56.886V56.886ZM24.1862 27.4859C21.1544 32.5846 18.9535 38.1334 17.6662 43.924C16.5602 49.754 17.6222 53.26 19.1662 54.152C20.7662 55.078 24.6502 54.2 29.3662 50.08C33.5463 46.1339 37.0747 41.5504 39.8202 36.5C42.7221 31.671 44.8676 26.4262 46.1822 20.9479C47.4902 14.5979 46.3602 10.7099 44.7562 9.78595C44.155 9.5556 43.5126 9.45249 42.8695 9.48312C42.2265 9.51376 41.5967 9.67749 41.0202 9.96395C38.8036 10.8786 36.7657 12.1772 35.0002 13.7999C30.6935 17.7615 27.0476 22.3858 24.2002 27.4979L24.1862 27.4859Z" fill="#007ACC"/>
<path d="M43.3541 56.9119C40.6441 56.9119 37.2021 55.2719 33.6181 52.1899C29.0315 48.0165 25.15 43.1287 22.1241 37.7159C18.9856 32.4647 16.7074 26.745 15.3761 20.774C14.7987 18.1469 14.6917 15.4383 15.0601 12.774C15.1453 11.7856 15.4462 10.8279 15.9418 9.96848C16.4373 9.10906 17.1153 8.36882 17.9281 7.79996C20.9021 6.07796 25.9481 7.84796 31.0981 12.42C35.3793 16.4643 39.0149 21.1414 41.8781 26.288C45.0147 31.4166 47.3167 37.011 48.6981 42.8619C49.3003 45.5854 49.3932 48.3967 48.9721 51.1539C48.8719 52.1708 48.553 53.1539 48.0372 54.0359C47.5215 54.9179 46.8211 55.678 45.9841 56.2639C45.1804 56.7094 44.2727 56.933 43.3541 56.9119V56.9119ZM24.1941 36.512C27.0969 41.6848 30.8047 46.3627 35.1781 50.3699C39.6761 54.2399 43.2441 55.0719 44.7781 54.1699C46.3781 53.2399 47.5581 49.4439 46.3421 43.3019C45.0098 37.7158 42.8019 32.3758 39.8001 27.48C37.0678 22.5542 33.5976 18.0757 29.5101 14.2C24.6621 9.89596 20.7301 8.93396 19.1281 9.86196C18.6288 10.2677 18.219 10.7726 17.9247 11.3447C17.6304 11.9169 17.4579 12.5438 17.4181 13.186C17.1001 15.5621 17.2037 17.9758 17.7241 20.316C19.0047 26.0262 21.1896 31.4952 24.1961 36.5159L24.1941 36.512Z" fill="#007ACC"/>
</svg>
