<svg width="38" height="36" viewBox="0 0 38 36" fill="none" xmlns="http://www.w3.org/2000/svg">
<g clip-path="url(#clip0)">
<path d="M26.171 25.0426C27.5648 24.8983 28.6222 23.6967 28.5741 22.2546C28.5262 20.8127 27.3244 19.6591 25.8825 19.6591H25.7865C24.2963 19.7072 23.1428 20.9569 23.1909 22.4469C23.239 23.1679 23.5273 23.7928 23.9599 24.2253C22.3258 27.4459 19.8264 29.8011 16.0774 31.7718C13.5299 33.1176 10.8865 33.5983 8.24297 33.2619C6.08001 32.9735 4.39775 32.0123 3.34018 30.4259C1.80221 28.0707 1.65806 25.5231 2.95583 22.9757C3.86911 21.1491 5.31088 19.8032 6.22416 19.1303C6.03192 18.5055 5.74347 17.448 5.59933 16.6791C-1.37007 21.726 -0.649035 28.5514 1.46582 31.7718C3.05188 34.1752 6.27226 35.6652 9.82903 35.6652C10.7903 35.6652 11.7515 35.569 12.7129 35.3288C18.8652 34.1271 23.5275 30.474 26.171 25.0426ZM34.6304 19.0824C30.9774 14.8044 25.5942 12.4492 19.4419 12.4492H18.6729C18.2403 11.584 17.3271 11.0071 16.3177 11.0071H16.2215C14.7317 11.0552 13.5782 12.3049 13.6261 13.7951C13.6742 15.237 14.8758 16.3906 16.3177 16.3906H16.4138C17.4712 16.3425 18.3845 15.6696 18.769 14.7563H19.6342C23.2871 14.7563 26.7477 15.8137 29.872 17.8806C32.2752 19.4669 34.0055 21.5338 34.9668 24.0331C35.7839 26.0519 35.7358 28.0226 34.8706 29.705C33.5249 32.2525 31.2659 33.6464 28.2858 33.6464C26.3632 33.6464 24.5368 33.0695 23.5754 32.637C23.0468 33.1176 22.0854 33.8866 21.4125 34.3675C23.4794 35.3287 25.5942 35.8575 27.6129 35.8575C32.2271 35.8575 35.6397 33.3099 36.9375 30.7624C38.3313 27.9745 38.2351 23.1679 34.6304 19.0824ZM10.2135 25.8595C10.2616 27.3016 11.4632 28.455 12.9051 28.455H13.0013C14.4913 28.4071 15.6448 27.1573 15.5967 25.6673C15.5488 24.2252 14.347 23.0717 12.9051 23.0717H12.8091C12.7129 23.0717 12.5686 23.0717 12.4727 23.1197C10.502 19.8512 9.68488 16.2944 9.97333 12.4491C10.1654 9.56508 11.1268 7.06559 12.8091 4.99869C14.2029 3.22023 16.8945 2.35505 18.721 2.3071C23.8158 2.2109 25.9786 8.55561 26.1229 11.1032C26.7477 11.2473 27.8051 11.5839 28.5262 11.8242C27.9493 4.03761 23.1428 0 18.5288 0C14.2029 0 10.2135 3.12433 8.62731 7.73867C6.41641 13.8911 7.85833 19.8032 10.5499 24.4657C10.3097 24.8021 10.1654 25.3309 10.2135 25.8597V25.8595Z" fill="#EC77FF"/>
</g>
<defs>
<clipPath id="clip0">
<rect width="37.7705" height="36" fill="white"/>
</clipPath>
</defs>
</svg>
