<svg width="128" height="128" viewBox="0 0 128 128" fill="none" xmlns="http://www.w3.org/2000/svg">
<path d="M0 64V128H128V0H0V64Z" fill="#007ACC"/>
<path d="M28.3061 64.425L28.2656 69.6664H44.9256V117.006H56.7106V69.6664H73.3706V64.5264C73.3706 61.6814 73.3096 59.3044 73.2286 59.2434C73.1676 59.1624 63.0291 59.1214 50.7371 59.1419L28.3676 59.2029L28.3066 64.4244L28.3061 64.425Z" fill="white"/>
<path d="M103.283 59.0541C106.533 59.8671 109.012 61.3091 111.288 63.6661C112.466 64.9261 114.213 67.2221 114.356 67.7706C114.396 67.9331 108.829 71.6716 105.457 73.7641C105.335 73.8456 104.847 73.3171 104.298 72.5041C102.653 70.1071 100.926 69.0706 98.2845 68.8881C94.4045 68.6236 91.905 70.6556 91.9255 74.0481C91.9255 75.0441 92.0675 75.6331 92.474 76.4461C93.3275 78.2136 94.912 79.2701 99.89 81.4236C109.053 85.3656 112.974 87.9661 115.412 91.6636C118.135 95.7886 118.744 102.371 116.895 107.268C114.864 112.591 109.825 116.208 102.734 117.406C100.54 117.792 95.339 117.731 92.982 117.305C87.842 116.39 82.9655 113.851 79.9585 110.519C78.78 109.218 76.484 105.825 76.6265 105.581C76.6875 105.5 77.2155 105.175 77.8045 104.83C78.3735 104.505 80.5275 103.265 82.559 102.087L86.2365 99.9531L87.0085 101.091C88.0855 102.737 90.442 104.992 91.8645 105.744C95.948 107.898 101.556 107.593 104.319 105.114C105.497 104.037 105.985 102.92 105.985 101.274C105.985 99.7906 105.802 99.1406 105.03 98.0236C104.035 96.6011 102.003 95.4021 96.2325 92.9036C89.6295 90.0586 86.785 88.2911 84.1845 85.4871C82.681 83.8621 81.2585 81.2611 80.6695 79.0871C80.182 77.2791 80.0595 72.7481 80.446 70.9196C81.8075 64.5396 86.6225 60.0906 93.571 58.7696C95.826 58.3431 101.068 58.5056 103.283 59.0546V59.0541Z" fill="white"/>
</svg>
