<svg width="36" height="36" viewBox="0 0 36 36" fill="none" xmlns="http://www.w3.org/2000/svg">
<g clip-path="url(#clip0)">
<path d="M29.8474 28.7989L23.4034 18L29.8474 7.20113L33.0007 18L29.8474 28.7989ZM15.597 27.7504L7.50037 19.7989H20.403L26.847 30.5977L15.597 27.7504ZM15.597 8.09663L26.847 5.24925L20.403 16.0481H7.34737C7.34737 16.2011 15.597 8.09663 15.597 8.09663ZM32.0974 0L17.4037 3.74962L15.1538 7.49925H10.7989L0 17.9989L10.7989 28.4985H15.1538L17.2507 32.2481L31.9523 35.9977L35.8481 21.7474L33.7511 17.9977L36.0011 14.2481L32.0974 0Z" fill="white"/>
</g>
<defs>
<clipPath id="clip0">
<rect width="36" height="36" fill="white"/>
</clipPath>
</defs>
</svg>
